FILE "track.flac" WAVE
  TRACK 01 AUDIO
    INDEX 01 00:00:00
  TRACK 02 AUDIO
    INDEX 01 00:00:02
  TRACK 03 AUDIO
    INDEX 01 00:00:04
  TRACK 04 AUDIO
    INDEX 01 00:00:06
